<svg height="16" width="16" xmlns="http://www.w3.org/2000/svg"><path d="m 8.0000001,1.6696518 c -0.204005,0 -0.40492,0.077275 -0.5594691,0.2318244 L 6.4514141,2.8905932 5.0573772,4.2599021 C 4.9059189,4.417542 4.8348259,4.6091838 4.8348259,4.8533723 c 0,0.7727472 0.7912936,0.7912936 0.7912936,0.7912936 0.2040049,0 0.4172839,-0.1020032 0.5687422,-0.2472792 l 1.0138449,-1.013845 v 2.8251649 c 0,0 0,0.7912936 0.7912935,0.7912936 0.7912937,0 0.7912937,-0.7912936 0.7912937,-0.7912936 V 4.3835417 l 1.0138449,1.013845 c 0.151458,0.145276 0.3245533,0.2472792 0.5687423,0.2472792 0,0 0.791294,-0.018546 0.791294,-0.7912936 0,-0.2441884 -0.0711,-0.4358302 -0.222551,-0.5934702 L 9.5485863,2.8905932 8.5594692,1.9014763 C 8.4049201,1.7469265 8.2040052,1.6696518 8.0000001,1.6696518 Z m -3.9564678,7.121642 c -1.3013067,0 -2.3738806,1.0725738 -2.3738806,2.3738812 v 3.165173 h 1.5825871 v -3.007533 l 3.6504595,2.435701 c 0.6614724,0.442011 1.5331313,0.442011 2.1946037,0 l 3.650459,-2.435701 v 3.007533 h 1.582587 v -3.165174 c 0,-1.3013064 -1.072573,-2.3738802 -2.37388,-2.3738802 z m 0.6336529,1.5825872 h 6.6456298 l -3.1033544,2.067871 c -0.1360035,0.08964 -0.3029174,0.08964 -0.438921,0 z m 0,0" fill="#ffffff"/></svg>
